<svg width="83" height="83" viewBox="0 0 83 83" fill="none" xmlns="http://www.w3.org/2000/svg">
<path d="M73.5833 3H9.41667C7.71486 3 6.08276 3.67604 4.8794 4.8794C3.67604 6.08276 3 7.71486 3 9.41667V73.5833C3 75.2851 3.67604 76.9172 4.8794 78.1206C6.08276 79.324 7.71486 80 9.41667 80H73.5833C75.2851 80 76.9172 79.324 78.1206 78.1206C79.324 76.9172 80 75.2851 80 73.5833V9.41667C80 7.71486 79.324 6.08276 78.1206 4.8794C76.9172 3.67604 75.2851 3 73.5833 3Z" stroke="#062D5F" stroke-width="6" stroke-linecap="round" stroke-linejoin="round"/>
<path d="M3 22.25H80M60.75 3L47.9167 22.25M35.0833 3L22.25 22.25M34.0139 50.0556V37.0896L45.2431 43.5704L56.4722 50.0556L45.2431 56.5385L34.0139 63.0215V50.0556Z" stroke="#062D5F" stroke-width="6" stroke-linecap="round" stroke-linejoin="round"/>
</svg>
