<svg width="78" height="82" viewBox="0 0 78 82" fill="none" xmlns="http://www.w3.org/2000/svg">
<path fill-rule="evenodd" clip-rule="evenodd" d="M0 8.20001C0 6.02523 0.863386 3.93953 2.40022 2.40173C3.93706 0.863932 6.02146 6.92548e-06 8.19487 6.92548e-06H16.3897C17.8812 6.92548e-06 19.2825 0.397706 20.4872 1.09881C21.7322 0.377227 23.1458 -0.0018686 24.5846 6.92548e-06H32.7795C35.7583 6.92548e-06 38.3684 1.59081 39.8025 3.97291C40.663 3.28411 41.6709 2.75931 42.8018 2.45591L50.7181 0.336207C51.7577 0.0571731 52.842 -0.0142089 53.9091 0.126139C54.9763 0.266486 56.0054 0.615815 56.9376 1.15417C57.8698 1.69253 58.6869 2.40937 59.3422 3.26375C59.9975 4.11813 60.4782 5.09331 60.7568 6.13361L77.7202 69.4991C77.9991 70.5393 78.0704 71.6243 77.9301 72.6922C77.7899 73.76 77.4408 74.7897 76.9027 75.7225C76.3647 76.6553 75.6483 77.4729 74.7945 78.1286C73.9406 78.7843 72.9661 79.2653 71.9264 79.5441L64.0102 81.6638C62.9706 81.9428 61.8863 82.0142 60.8191 81.8739C59.752 81.7335 58.7229 81.3842 57.7907 80.8458C56.8585 80.3075 56.0414 79.5906 55.3861 78.7363C54.7307 77.8819 54.2501 76.9067 53.9714 75.8664L40.9744 27.3183V73.8C40.9744 75.9748 40.111 78.0605 38.5742 79.5983C37.0373 81.1361 34.9529 82 32.7795 82H24.5846C23.1458 82.0019 21.7322 81.6228 20.4872 80.9012C19.2422 81.6228 17.8285 82.0019 16.3897 82H8.19487C6.02146 82 3.93706 81.1361 2.40022 79.5983C0.863386 78.0605 0 75.9748 0 73.8V8.20001ZM8.19487 8.20001H16.3897V73.8H8.19487V8.20001ZM32.7795 73.8H24.5846V8.20001H32.7795V73.8ZM44.9202 10.3771L52.8365 8.25741L69.808 71.6229L61.8918 73.7426L44.9202 10.3771Z" fill="#1B4173"/>
</svg>
