<svg width="13" height="18" viewBox="0 0 13 18" fill="none" xmlns="http://www.w3.org/2000/svg">
<path d="M6.00103 8.512C5.43261 8.512 4.88748 8.28766 4.48554 7.88832C4.08361 7.48898 3.85781 6.94736 3.85781 6.3826C3.85781 5.81785 4.08361 5.27623 4.48554 4.87689C4.88748 4.47755 5.43261 4.25321 6.00103 4.25321C6.56945 4.25321 7.11459 4.47755 7.51652 4.87689C7.91845 5.27623 8.14426 5.81785 8.14426 6.3826C8.14426 6.66224 8.08882 6.93914 7.98111 7.19749C7.87341 7.45584 7.71554 7.69058 7.51652 7.88832C7.3175 8.08605 7.08124 8.2429 6.82121 8.34991C6.56118 8.45692 6.28248 8.512 6.00103 8.512ZM6.00103 0.420288C4.40946 0.420288 2.88307 1.04846 1.75766 2.16661C0.63225 3.28476 0 4.8013 0 6.3826C0 10.8543 6.00103 17.4555 6.00103 17.4555C6.00103 17.4555 12.0021 10.8543 12.0021 6.3826C12.0021 4.8013 11.3698 3.28476 10.2444 2.16661C9.11899 1.04846 7.59261 0.420288 6.00103 0.420288Z" fill="black"/>
</svg>
