<svg width="31" height="44" viewBox="0 0 31 44" fill="none" xmlns="http://www.w3.org/2000/svg">
<path d="M15.5 20.9C14.0318 20.9 12.6238 20.3205 11.5857 19.2891C10.5475 18.2576 9.96428 16.8587 9.96428 15.4C9.96428 13.9413 10.5475 12.5424 11.5857 11.5109C12.6238 10.4795 14.0318 9.9 15.5 9.9C16.9682 9.9 18.3762 10.4795 19.4143 11.5109C20.4525 12.5424 21.0357 13.9413 21.0357 15.4C21.0357 16.1223 20.8925 16.8375 20.6143 17.5048C20.3361 18.1721 19.9284 18.7784 19.4143 19.2891C18.9003 19.7998 18.2901 20.2049 17.6184 20.4813C16.9468 20.7577 16.227 20.9 15.5 20.9ZM15.5 0C11.3891 0 7.44666 1.6225 4.53984 4.51056C1.63303 7.39862 0 11.3157 0 15.4C0 26.95 15.5 44 15.5 44C15.5 44 31 26.95 31 15.4C31 11.3157 29.367 7.39862 26.4602 4.51056C23.5533 1.6225 19.6109 0 15.5 0Z" fill="#D01E20"/>
</svg>
