<svg width="90" height="90" viewBox="0 0 90 90" fill="none" xmlns="http://www.w3.org/2000/svg">
<path d="M17.6667 45H31.3333M58.6667 45V58.6667M45 72.3333H58.6667M45 45.0501L45.0456 45M72.3333 45.0501L72.3789 45M45 58.7168L45.0456 58.6667M72.3333 58.7168L72.3789 58.6667M72.3333 72.3834L72.3789 72.3333M45 31.3834L45.0456 31.3333M45 17.7168L45.0456 17.6667M72.3333 4H86V17.6667M72.3333 86H86V72.3333M17.6667 4H4V17.6667M17.6667 86H4V72.3333M31.3333 20.4V28.6C31.3333 29.3249 31.0454 30.0202 30.5328 30.5328C30.0202 31.0454 29.3249 31.3333 28.6 31.3333H20.4C19.6751 31.3333 18.9798 31.0454 18.4672 30.5328C17.9546 30.0202 17.6667 29.3249 17.6667 28.6V20.4C17.6667 19.6751 17.9546 18.9798 18.4672 18.4672C18.9798 17.9546 19.6751 17.6667 20.4 17.6667H28.6C29.3249 17.6667 30.0202 17.9546 30.5328 18.4672C31.0454 18.9798 31.3333 19.6751 31.3333 20.4ZM31.3333 61.4V69.6C31.3333 70.3249 31.0454 71.0202 30.5328 71.5328C30.0202 72.0454 29.3249 72.3333 28.6 72.3333H20.4C19.6751 72.3333 18.9798 72.0454 18.4672 71.5328C17.9546 71.0202 17.6667 70.3249 17.6667 69.6V61.4C17.6667 60.6751 17.9546 59.9798 18.4672 59.4672C18.9798 58.9546 19.6751 58.6667 20.4 58.6667H28.6C29.3249 58.6667 30.0202 58.9546 30.5328 59.4672C31.0454 59.9798 31.3333 60.6751 31.3333 61.4ZM72.3333 20.4V28.6C72.3333 29.3249 72.0454 30.0202 71.5328 30.5328C71.0202 31.0454 70.3249 31.3333 69.6 31.3333H61.4C60.6751 31.3333 59.9798 31.0454 59.4672 30.5328C58.9546 30.0202 58.6667 29.3249 58.6667 28.6V20.4C58.6667 19.6751 58.9546 18.9798 59.4672 18.4672C59.9798 17.9546 60.6751 17.6667 61.4 17.6667H69.6C70.3249 17.6667 71.0202 17.9546 71.5328 18.4672C72.0454 18.9798 72.3333 19.6751 72.3333 20.4Z" stroke="#1B4173" stroke-width="7" stroke-linecap="round" stroke-linejoin="round"/>
</svg>
