<svg width="90" height="90" viewBox="0 0 90 90" fill="none" xmlns="http://www.w3.org/2000/svg">
<path d="M44.9999 45C41.5149 45 38.593 43.8206 36.2341 41.4617C33.8752 39.1028 32.6972 36.1823 32.6999 32.7C32.6999 29.2833 33.8793 26.3792 36.2382 23.9875C38.5971 21.5958 41.5176 20.4 44.9999 20.4C48.4166 20.4 51.3207 21.5958 53.7124 23.9875C56.1041 26.3792 57.2999 29.2833 57.2999 32.7C57.2999 36.185 56.1041 39.1069 53.7124 41.4658C51.3207 43.8247 48.4166 45.0027 44.9999 45ZM20.3999 65.5V61.81C20.3999 60.375 20.7594 59.0247 21.4782 57.7592C22.1971 56.4937 23.1701 55.4864 24.3974 54.7375C27.5407 52.8925 30.8385 51.4917 34.2907 50.535C37.7429 49.5783 41.3126 49.1 44.9999 49.1C48.6899 49.1 52.261 49.5783 55.7132 50.535C59.1654 51.4917 62.4618 52.8925 65.6024 54.7375C66.8324 55.4892 67.8068 56.4978 68.5257 57.7633C69.2446 59.0288 69.6026 60.3777 69.5999 61.81V65.5C69.5999 66.6617 69.2063 67.6361 68.4191 68.4233C67.6319 69.2105 66.6588 69.6027 65.4999 69.6H24.4999C23.3382 69.6 22.3638 69.2064 21.5766 68.4192C20.7894 67.632 20.3972 66.6589 20.3999 65.5Z" fill="#1B4173"/>
<path d="M72.3333 4H86V17.6667M72.3333 86H86V72.3333M17.6667 4H4V17.6667M17.6667 86H4V72.3333" stroke="#1B4173" stroke-width="7" stroke-linecap="round" stroke-linejoin="round"/>
</svg>
