<svg width="38" height="38" viewBox="0 0 38 38" fill="none" xmlns="http://www.w3.org/2000/svg">
<path d="M10.7787 0C11.1314 0 11.4697 0.140125 11.7192 0.389548C11.9686 0.638971 12.1087 0.977262 12.1087 1.33V3.8171H26.391V1.3471C26.391 0.994362 26.5311 0.656071 26.7805 0.406648C27.03 0.157225 27.3683 0.0171 27.721 0.0171C28.0737 0.0171 28.412 0.157225 28.6615 0.406648C28.9109 0.656071 29.051 0.994362 29.051 1.3471V3.8171H34.2C35.2075 3.8171 36.1738 4.2172 36.8863 4.92942C37.5989 5.64165 37.9995 6.60771 38 7.6152V34.2019C37.9995 35.2094 37.5989 36.1755 36.8863 36.8877C36.1738 37.5999 35.2075 38 34.2 38H3.8C2.79251 38 1.82625 37.5999 1.11367 36.8877C0.401082 36.1755 0.000503747 35.2094 0 34.2019L0 7.6152C0.000503747 6.60771 0.401082 5.64165 1.11367 4.92942C1.82625 4.2172 2.79251 3.8171 3.8 3.8171H9.4487V1.3281C9.4492 0.975691 9.58955 0.637889 9.83892 0.388876C10.0883 0.139863 10.4263 -3.59601e-07 10.7787 0ZM2.66 14.7098V34.2019C2.66 34.3516 2.68949 34.4998 2.74678 34.6382C2.80407 34.7765 2.88804 34.9021 2.9939 35.008C3.09976 35.1139 3.22543 35.1978 3.36374 35.2551C3.50205 35.3124 3.65029 35.3419 3.8 35.3419H34.2C34.3497 35.3419 34.4979 35.3124 34.6363 35.2551C34.7746 35.1978 34.9002 35.1139 35.0061 35.008C35.112 34.9021 35.1959 34.7765 35.2532 34.6382C35.3105 34.4998 35.34 34.3516 35.34 34.2019V14.7364L2.66 14.7098ZM12.6673 27.7761V30.9415H9.5V27.7761H12.6673ZM20.5827 27.7761V30.9415H17.4173V27.7761H20.5827ZM28.5 27.7761V30.9415H25.3327V27.7761H28.5ZM12.6673 20.2198V23.3852H9.5V20.2198H12.6673ZM20.5827 20.2198V23.3852H17.4173V20.2198H20.5827ZM28.5 20.2198V23.3852H25.3327V20.2198H28.5ZM9.4487 6.4752H3.8C3.65029 6.4752 3.50205 6.50469 3.36374 6.56198C3.22543 6.61927 3.09976 6.70324 2.9939 6.8091C2.88804 6.91496 2.80407 7.04063 2.74678 7.17894C2.68949 7.31725 2.66 7.46549 2.66 7.6152V12.0517L35.34 12.0783V7.6152C35.34 7.46549 35.3105 7.31725 35.2532 7.17894C35.1959 7.04063 35.112 6.91496 35.0061 6.8091C34.9002 6.70324 34.7746 6.61927 34.6363 6.56198C34.4979 6.50469 34.3497 6.4752 34.2 6.4752H29.051V8.2403C29.051 8.59304 28.9109 8.93133 28.6615 9.18075C28.412 9.43018 28.0737 9.5703 27.721 9.5703C27.3683 9.5703 27.03 9.43018 26.7805 9.18075C26.5311 8.93133 26.391 8.59304 26.391 8.2403V6.4752H12.1087V8.2232C12.1087 8.57594 11.9686 8.91423 11.7192 9.16365C11.4697 9.41308 11.1314 9.5532 10.7787 9.5532C10.426 9.5532 10.0877 9.41308 9.83825 9.16365C9.58882 8.91423 9.4487 8.57594 9.4487 8.2232V6.4752Z" fill="#1B4173"/>
</svg>
