<svg width="39" height="39" viewBox="0 0 39 39" fill="none" xmlns="http://www.w3.org/2000/svg">
<path d="M19.5 36.2143C21.695 36.2143 23.8684 35.782 25.8963 34.942C27.9242 34.102 29.7667 32.8708 31.3188 31.3188C32.8708 29.7667 34.102 27.9242 34.942 25.8963C35.782 23.8684 36.2143 21.695 36.2143 19.5C36.2143 17.305 35.782 15.1316 34.942 13.1037C34.102 11.0758 32.8708 9.23328 31.3188 7.68122C29.7667 6.12915 27.9242 4.89798 25.8963 4.05801C23.8684 3.21804 21.695 2.78571 19.5 2.78571C15.0671 2.78571 10.8158 4.54668 7.68122 7.68122C4.54668 10.8158 2.78571 15.0671 2.78571 19.5C2.78571 23.9329 4.54668 28.1842 7.68122 31.3188C10.8158 34.4533 15.0671 36.2143 19.5 36.2143ZM19.5 39C14.3283 39 9.36838 36.9455 5.71142 33.2886C2.05446 29.6316 0 24.6717 0 19.5C0 14.3283 2.05446 9.36838 5.71142 5.71142C9.36838 2.05446 14.3283 0 19.5 0C24.6717 0 29.6316 2.05446 33.2886 5.71142C36.9455 9.36838 39 14.3283 39 19.5C39 24.6717 36.9455 29.6316 33.2886 33.2886C29.6316 36.9455 24.6717 39 19.5 39Z" fill="#1B4173"/>
<path d="M18.1057 8.35693C18.4752 8.35693 18.8294 8.50368 19.0906 8.76489C19.3519 9.0261 19.4986 9.38038 19.4986 9.74979V20.8926C19.4986 21.2621 19.3519 21.6163 19.0906 21.8775C18.8294 22.1388 18.4752 22.2855 18.1057 22.2855C17.7363 22.2855 17.3821 22.1388 17.1208 21.8775C16.8596 21.6163 16.7129 21.2621 16.7129 20.8926V9.74979C16.7129 9.38038 16.8596 9.0261 17.1208 8.76489C17.3821 8.50368 17.7363 8.35693 18.1057 8.35693Z" fill="#1B4173"/>
<path d="M18.1057 19.5H29.2486C30.1772 19.5 30.6415 19.9643 30.6415 20.8929C30.6415 21.8214 30.1772 22.2857 29.2486 22.2857H18.1057C17.1772 22.2857 16.7129 21.8214 16.7129 20.8929C16.7129 19.9643 17.1772 19.5 18.1057 19.5Z" fill="#1B4173"/>
</svg>
