<svg width="30" height="42" viewBox="0 0 30 42" fill="none" xmlns="http://www.w3.org/2000/svg">
<path d="M14.886 2C7.50496 2 1.5166 7.69962 1.5166 14.7195C1.5166 22.7968 10.4295 35.597 13.7022 40.0182C13.8381 40.2048 14.0161 40.3567 14.2218 40.4614C14.4276 40.5661 14.6551 40.6207 14.886 40.6207C15.1168 40.6207 15.3444 40.5661 15.5501 40.4614C15.7558 40.3567 15.9339 40.2048 16.0697 40.0182C19.3424 35.5989 28.2553 22.8033 28.2553 14.7195C28.2553 7.69962 22.267 2 14.886 2Z" stroke="#1B4173" stroke-width="2.5" stroke-linecap="round" stroke-linejoin="round"/>
<path d="M14.8871 19.826C17.3483 19.826 19.3436 17.8308 19.3436 15.3695C19.3436 12.9083 17.3483 10.9131 14.8871 10.9131C12.4259 10.9131 10.4307 12.9083 10.4307 15.3695C10.4307 17.8308 12.4259 19.826 14.8871 19.826Z" stroke="#1B4173" stroke-width="2.5" stroke-linecap="round" stroke-linejoin="round"/>
</svg>
