<svg width="46" height="46" viewBox="0 0 46 46" fill="none" xmlns="http://www.w3.org/2000/svg">
<path d="M33.3162 12.6871C32.5363 11.9069 32.0796 10.8611 32.0376 9.7588C31.9955 8.65649 32.3711 7.57893 33.0893 6.74162C33.1487 6.67198 33.1796 6.58246 33.1757 6.49101C33.1719 6.39956 33.1337 6.31294 33.0687 6.24851L28.9316 2.10675C28.8632 2.0384 28.7705 2 28.6738 2C28.5771 2 28.4844 2.0384 28.416 2.10675L21.8218 8.70093C21.5785 8.94417 21.3952 9.24075 21.2865 9.56716C21.1782 9.89432 20.9951 10.1917 20.7519 10.4358C20.5086 10.6799 20.2118 10.864 19.885 10.9734C19.5584 11.0822 19.2615 11.2655 19.0178 11.5087L2.10675 28.416C2.0384 28.4844 2 28.5771 2 28.6738C2 28.7705 2.0384 28.8632 2.10675 28.9316L6.24382 33.0687C6.30825 33.1337 6.39488 33.1719 6.48633 33.1757C6.57777 33.1796 6.66729 33.1487 6.73693 33.0893C7.57406 32.3703 8.65186 31.9941 9.75455 32.0359C10.8572 32.0777 11.9035 32.5345 12.6837 33.3148C13.464 34.0951 13.9208 35.1413 13.9626 36.244C14.0044 37.3467 13.6282 38.4245 12.9092 39.2616C12.8498 39.3312 12.819 39.4208 12.8228 39.5122C12.8266 39.6037 12.8649 39.6903 12.9299 39.7547L17.0669 43.8918C17.1353 43.9601 17.2281 43.9985 17.3247 43.9985C17.4214 43.9985 17.5142 43.9601 17.5826 43.8918L34.4946 26.9807C34.7378 26.737 34.921 26.4402 35.0299 26.1136C35.1382 25.7864 35.3212 25.489 35.5645 25.2449C35.8078 25.0008 36.1046 24.8167 36.4314 24.7073C36.7578 24.5986 37.0544 24.4153 37.2976 24.172L43.8918 17.5779C43.9601 17.5095 43.9985 17.4167 43.9985 17.3201C43.9985 17.2234 43.9601 17.1306 43.8918 17.0623L39.7547 12.9252C39.6903 12.8602 39.6037 12.8219 39.5122 12.8181C39.4208 12.8143 39.3312 12.8452 39.2616 12.9046C38.4254 13.624 37.3486 14.0012 36.2463 13.9609C35.144 13.9206 34.0975 13.4656 33.3162 12.6871Z" stroke="#1B4173" stroke-width="3" stroke-miterlimit="10"/>
<path d="M22.4833 12.1659L20.9355 10.6182M26.6101 16.2927L25.5779 15.2615M30.7368 20.4204L29.7056 19.3882M35.3801 25.0627L33.8324 23.515" stroke="#1B4173" stroke-width="3" stroke-miterlimit="10" stroke-linecap="round"/>
</svg>
